<svg viewBox="0 0 32 32" fill="none" xmlns="http://www.w3.org/2000/svg"><path d="M16 7.5V10H19C19.5933 10 20.1734 9.85338 20.6667 9.57867C21.1601 9.30397 21.5446 8.91352 21.7716 8.45671C21.9987 7.99989 22.0581 7.49723 21.9424 7.01228C21.8266 6.52732 21.5409 6.08187 21.1213 5.73223C20.7018 5.3826 20.1672 5.1445 19.5853 5.04804C19.0033 4.95157 18.4001 5.00108 17.8519 5.1903C17.3038 5.37952 16.8352 5.69995 16.5056 6.11108C16.1759 6.5222 16 7.00555 16 7.5V7.5Z" stroke="#212736" stroke-width="2" stroke-miterlimit="10" stroke-linecap="round"/><path d="M16 7.5C16 8.19018 16 10 16 10H13C12.4067 10 11.8266 9.85338 11.3333 9.57867C10.8399 9.30397 10.4554 8.91352 10.2284 8.45671C10.0013 7.99989 9.94189 7.49723 10.0576 7.01228C10.1734 6.52732 10.4591 6.08187 10.8787 5.73223C11.2982 5.3826 11.8328 5.1445 12.4147 5.04804C12.9967 4.95157 13.5999 5.00108 14.1481 5.1903C14.6962 5.37952 15.1648 5.69995 15.4944 6.11108C15.8241 6.5222 16 7.00555 16 7.5V7.5Z" stroke="#212736" stroke-width="2" stroke-miterlimit="10" stroke-linecap="round"/><path d="M24.3333 10H7.66667C6.74619 10 6 10.8954 6 12V15C6 16.1046 6.74619 17 7.66667 17H24.3333C25.2538 17 26 16.1046 26 15V12C26 10.8954 25.2538 10 24.3333 10Z" stroke="#212736" stroke-width="2" stroke-linecap="round" stroke-linejoin="round"/><path d="M25 17V24.5C25 25.163 24.7155 25.7989 24.2092 26.2678C23.7028 26.7366 23.0161 27 22.3 27H9.7C8.98392 27 8.29716 26.7366 7.79081 26.2678C7.28446 25.7989 7 25.163 7 24.5V17" stroke="#212736" stroke-width="2" stroke-linecap="round" stroke-linejoin="round"/><path d="M16 10V27" stroke="#212736" stroke-width="2" stroke-linecap="round" stroke-linejoin="round"/></svg>